<mxfile host="app.diagrams.net" modified="2023-11-30T06:06:28.399Z" agent="Mozilla/5.0 (Windows NT 10.0; Win64; x64) AppleWebKit/537.36 (KHTML, like Gecko) Chrome/119.0.0.0 Safari/537.36 Edg/119.0.0.0" etag="8Wmx155VDvVp3bYbuASW" version="22.1.5" type="github">
  <diagram name="第 1 页" id="rWaKnwqJQ8q0o11JriqI">
    <mxGraphModel dx="1002" dy="543" grid="1" gridSize="10" guides="1" tooltips="1" connect="1" arrows="1" fold="1" page="1" pageScale="1" pageWidth="827" pageHeight="1169" math="0" shadow="0">
      <root>
        <mxCell id="0" />
        <mxCell id="1" parent="0" />
        <mxCell id="aHVAtBqqu75yX_2XQAnd-3" value="" style="edgeStyle=orthogonalEdgeStyle;rounded=0;orthogonalLoop=1;jettySize=auto;html=1;" parent="1" source="aHVAtBqqu75yX_2XQAnd-1" target="aHVAtBqqu75yX_2XQAnd-2" edge="1">
          <mxGeometry relative="1" as="geometry" />
        </mxCell>
        <mxCell id="aHVAtBqqu75yX_2XQAnd-1" value="定义接口以及接口所需要的实体类" style="rounded=0;whiteSpace=wrap;html=1;fillColor=#dae8fc;strokeColor=#6c8ebf;shadow=0;glass=0;" parent="1" vertex="1">
          <mxGeometry x="280" y="410" width="230" height="80" as="geometry" />
        </mxCell>
        <mxCell id="aHVAtBqqu75yX_2XQAnd-2" value="实现接口类" style="whiteSpace=wrap;html=1;rounded=0;fillColor=#fff2cc;strokeColor=#d6b656;" parent="1" vertex="1">
          <mxGeometry x="270" y="280" width="250" height="60" as="geometry" />
        </mxCell>
        <mxCell id="aHVAtBqqu75yX_2XQAnd-4" value="RPC" style="text;strokeColor=none;align=center;fillColor=none;html=1;verticalAlign=middle;whiteSpace=wrap;rounded=0;" parent="1" vertex="1">
          <mxGeometry x="180" y="435" width="60" height="30" as="geometry" />
        </mxCell>
        <mxCell id="aHVAtBqqu75yX_2XQAnd-5" value="interfaces" style="text;strokeColor=none;align=center;fillColor=none;html=1;verticalAlign=middle;whiteSpace=wrap;rounded=0;" parent="1" vertex="1">
          <mxGeometry x="170" y="280" width="80" height="30" as="geometry" />
        </mxCell>
        <mxCell id="aHVAtBqqu75yX_2XQAnd-8" style="edgeStyle=orthogonalEdgeStyle;rounded=0;orthogonalLoop=1;jettySize=auto;html=1;entryX=0.5;entryY=0;entryDx=0;entryDy=0;" parent="1" source="aHVAtBqqu75yX_2XQAnd-6" target="aHVAtBqqu75yX_2XQAnd-2" edge="1">
          <mxGeometry relative="1" as="geometry" />
        </mxCell>
        <mxCell id="aHVAtBqqu75yX_2XQAnd-6" value="数据库的相关操作" style="whiteSpace=wrap;html=1;rounded=0;fillColor=#f8cecc;strokeColor=#b85450;" parent="1" vertex="1">
          <mxGeometry x="270" y="140" width="250" height="60" as="geometry" />
        </mxCell>
        <mxCell id="aHVAtBqqu75yX_2XQAnd-9" value="infrastructure" style="text;strokeColor=none;align=center;fillColor=none;html=1;verticalAlign=middle;whiteSpace=wrap;rounded=0;" parent="1" vertex="1">
          <mxGeometry x="170" y="160" width="80" height="40" as="geometry" />
        </mxCell>
        <mxCell id="aHVAtBqqu75yX_2XQAnd-10" value="调用Dao" style="text;strokeColor=none;align=center;fillColor=none;html=1;verticalAlign=middle;whiteSpace=wrap;rounded=0;" parent="1" vertex="1">
          <mxGeometry x="414" y="230" width="60" height="30" as="geometry" />
        </mxCell>
      </root>
    </mxGraphModel>
  </diagram>
</mxfile>
